<?xml version="1.0" standalone="no"?>
<!DOCTYPE svg PUBLIC "-//W3C//DTD SVG 20010904//EN"
 "http://www.w3.org/TR/2001/REC-SVG-20010904/DTD/svg10.dtd">
<svg version="1.0" xmlns="http://www.w3.org/2000/svg"
 width="275.000000pt" height="183.000000pt" viewBox="0 0 275.000000 183.000000"
 preserveAspectRatio="xMidYMid meet">

<g transform="translate(0.000000,183.000000) scale(0.100000,-0.100000)"
fill="#000000" stroke="none">
<path d="M205 1657 c-35 -19 1 -107 44 -107 39 0 79 87 49 106 -17 11 -75 11
-93 1z m83 -10 c6 -5 12 -15 12 -24 0 -20 -39 -63 -56 -63 -30 0 -60 83 -34
92 18 6 65 3 78 -5z"/>
<path d="M457 1664 c-4 -4 -7 -30 -7 -59 l0 -51 50 0 51 0 -3 55 -3 56 -40 3
c-23 2 -44 0 -48 -4z m83 -52 l0 -47 -40 0 -40 0 0 47 0 48 40 0 40 0 0 -48z"/>
<path d="M697 1664 c-4 -4 -7 -31 -7 -59 l0 -52 55 0 56 1 -3 55 -3 56 -45 3
c-25 2 -49 0 -53 -4z m93 -49 c0 -25 -3 -46 -7 -46 -71 -12 -83 -5 -83 47 l0
44 45 0 45 0 0 -45z"/>
<path d="M733 1623 c9 -2 25 -2 35 0 9 3 1 5 -18 5 -19 0 -27 -2 -17 -5z"/>
<path d="M728 1593 c6 -2 18 -2 25 0 6 3 1 5 -13 5 -14 0 -19 -2 -12 -5z"/>
<path d="M959 1653 c-11 -15 -11 -16 1 -5 19 17 75 15 90 -2 21 -26 8 -57 -31
-70 -39 -14 -51 -7 -69 36 -5 14 -9 17 -9 8 -1 -9 7 -27 16 -40 9 -14 17 -26
18 -27 1 -3 69 21 83 30 17 11 15 52 -4 71 -21 22 -78 21 -95 -1z"/>
<path d="M1230 1649 c0 -10 -4 -19 -10 -19 -14 0 -12 -64 2 -78 14 -14 64 -16
72 -4 3 5 -12 8 -32 8 -31 -1 -38 3 -40 22 -3 20 0 22 38 19 29 -3 44 1 47 11
3 8 1 17 -4 21 -6 3 -12 12 -14 20 -3 8 -17 15 -32 17 -21 2 -27 -2 -27 -17z
m50 1 c0 -5 -5 -10 -11 -10 -5 0 -7 5 -4 10 3 6 8 10 11 10 2 0 4 -4 4 -10z
m15 -30 c4 -6 -10 -10 -35 -10 -25 0 -39 4 -35 10 3 6 19 10 35 10 16 0 32 -4
35 -10z"/>
<path d="M1526 1656 c47 -21 56 -54 24 -86 -11 -11 -16 -20 -11 -20 13 0 41
40 41 58 0 19 -46 62 -67 62 -11 -1 -6 -6 13 -14z"/>
<path d="M1727 1663 c-3 -4 15 -6 40 -4 l45 3 -4 -55 c-1 -31 1 -52 5 -48 5 5
7 30 5 57 l-3 49 -42 3 c-22 2 -43 -1 -46 -5z"/>
<path d="M1964 1655 c-3 -8 -4 -20 -1 -27 3 -7 6 -3 6 10 1 21 5 23 44 20 l42
-3 0 -50 0 -50 -40 -6 -40 -6 36 -2 c19 0 40 4 47 11 13 13 16 75 6 102 -8 22
-92 22 -100 1z"/>
<path d="M2244 1658 c-4 -7 -3 -10 1 -5 5 4 19 0 32 -8 27 -18 31 -9 6 11 -23
17 -30 17 -39 2z"/>
<path d="M2498 1663 c12 -2 30 -2 40 0 9 3 -1 5 -23 4 -22 0 -30 -2 -17 -4z"/>
<path d="M1463 1634 c-15 -23 -15 -29 -2 -52 8 -14 20 -27 28 -30 7 -2 4 5 -8
17 -25 25 -26 39 -5 69 8 12 13 22 10 22 -3 0 -13 -12 -23 -26z"/>
<path d="M2210 1600 c0 -27 3 -50 8 -50 4 0 7 23 7 50 0 28 -3 50 -7 50 -5 0
-8 -22 -8 -50z"/>
<path d="M2493 1643 c15 -2 37 -2 50 0 12 2 0 4 -28 4 -27 0 -38 -2 -22 -4z"/>
<path d="M1001 1624 c0 -11 3 -14 6 -6 3 7 2 16 -1 19 -3 4 -6 -2 -5 -13z"/>
<path d="M1505 1630 c-4 -6 -2 -17 5 -24 8 -11 8 -15 -2 -18 -9 -3 -9 -6 0
-12 7 -4 15 0 19 9 3 10 0 21 -7 25 -7 4 -9 13 -6 19 4 6 5 11 2 11 -3 0 -8
-5 -11 -10z"/>
<path d="M1753 1633 c9 -2 25 -2 35 0 9 3 1 5 -18 5 -19 0 -27 -2 -17 -5z"/>
<path d="M2014 1623 c5 -9 -2 -13 -26 -14 -30 -2 -31 -2 -5 -6 15 -2 25 -9 22
-14 -9 -14 11 -11 24 5 9 10 7 17 -6 27 -11 9 -14 10 -9 2z"/>
<path d="M2243 1623 c9 -2 23 -2 30 0 6 3 -1 5 -18 5 -16 0 -22 -2 -12 -5z"/>
<path d="M2463 1623 c-7 -2 -13 -20 -13 -39 0 -38 20 -48 81 -42 32 3 34 5 35
41 l1 37 -4 -35 -4 -36 -47 3 c-40 3 -47 6 -50 26 -2 13 2 30 8 38 13 15 12
15 -7 7z"/>
<path d="M1753 1603 c9 -2 25 -2 35 0 9 3 1 5 -18 5 -19 0 -27 -2 -17 -5z"/>
<path d="M2515 1590 c-4 -6 -11 -7 -17 -4 -7 4 -8 2 -4 -5 6 -9 11 -9 22 0 14
11 18 19 10 19 -3 0 -8 -5 -11 -10z"/>
<path d="M1962 1570 c0 -14 2 -19 5 -12 2 6 2 18 0 25 -3 6 -5 1 -5 -13z"/>
<path d="M2248 1573 c6 -2 18 -2 25 0 6 3 1 5 -13 5 -14 0 -19 -2 -12 -5z"/>
<path d="M223 1378 c-6 -7 -13 -28 -17 -47 -5 -26 -2 -37 11 -47 21 -16 53
-18 53 -4 0 6 6 10 14 10 11 0 13 9 9 38 -7 44 -19 62 -43 62 -10 0 -22 -6
-27 -12z m58 -40 l6 -38 -39 0 c-37 0 -38 1 -32 28 11 49 14 53 36 50 18 -2
24 -12 29 -40z"/>
<path d="M467 1384 c-4 -4 -7 -18 -7 -31 0 -12 -4 -23 -10 -23 -15 0 -12 -26
6 -41 32 -27 104 -8 104 27 0 10 -13 14 -45 14 -43 0 -45 1 -44 28 0 15 3 21
6 15 2 -7 11 -13 20 -13 8 0 13 6 11 13 -5 14 -31 21 -41 11z m81 -76 c-3 -8
-22 -13 -48 -13 -26 0 -45 5 -47 13 -3 8 10 12 47 12 37 0 50 -4 48 -12z"/>
<path d="M736 1353 c-21 -22 -35 -45 -32 -55 2 -9 -1 -19 -8 -22 -6 -2 12 -5
39 -5 29 0 45 3 37 7 -9 6 -6 14 13 32 30 28 31 41 6 64 -18 16 -20 15 -55
-21z m44 -28 c-21 -23 -26 -24 -39 -10 -13 13 -12 17 9 40 21 23 26 24 39 10
13 -13 12 -17 -9 -40z m-35 -43 c-9 -9 -35 8 -35 24 0 16 2 16 20 -1 11 -10
18 -20 15 -23z"/>
<path d="M953 1375 c-10 -7 -13 -25 -11 -55 l3 -45 52 -3 c48 -3 53 -1 58 20
6 24 0 76 -9 85 -10 10 -79 8 -93 -2z m92 -15 c4 -6 -13 -10 -45 -10 -32 0
-49 4 -45 10 3 6 24 10 45 10 21 0 42 -4 45 -10z m3 -47 c-3 -26 -7 -28 -50
-31 -47 -3 -48 -3 -48 27 0 30 1 31 51 31 49 0 50 -1 47 -27z"/>
<path d="M1010 1316 c-6 -8 -19 -12 -28 -9 -14 5 -15 3 -4 -8 10 -11 16 -10
34 9 12 12 20 22 16 22 -3 0 -11 -6 -18 -14z"/>
<path d="M1460 1371 c-5 -11 -10 -26 -9 -33 0 -7 5 -1 11 15 17 46 78 31 78
-19 0 -33 -11 -58 -20 -44 -5 9 -9 8 -13 -2 -3 -9 2 -14 14 -15 23 -2 37 57
20 93 -14 31 -65 34 -81 5z"/>
<path d="M1698 1371 c-10 -13 -10 -14 2 -3 22 19 35 14 17 -6 -10 -10 -17 -23
-17 -28 0 -4 7 2 16 14 21 30 48 28 74 -5 15 -20 18 -22 11 -6 -14 28 -14 36
2 27 9 -5 9 -4 -1 7 -17 19 -90 19 -104 0z"/>
<path d="M1980 1370 c0 -10 -9 -24 -20 -30 -11 -6 -20 -20 -19 -33 1 -21 1
-21 9 3 7 21 8 22 9 5 1 -29 20 -45 53 -45 29 0 48 23 48 59 0 15 -6 21 -24
21 -15 0 -26 7 -29 20 -7 26 -27 26 -27 0z m46 -30 c24 0 30 -13 18 -44 -7
-18 -59 -22 -70 -5 -3 6 0 30 7 53 11 32 15 36 17 19 3 -17 10 -23 28 -23z"/>
<path d="M2196 1373 c-2 -10 -2 -36 2 -58 7 -39 8 -40 53 -43 l46 -3 6 52 c4
29 4 56 1 60 -3 5 -27 9 -54 9 -38 0 -50 -4 -54 -17z m104 -6 c0 -7 -9 -13
-20 -14 -11 -1 -20 4 -20 10 0 7 -4 6 -10 -3 -8 -12 -11 -13 -19 -1 -7 11 -9
11 -13 0 -3 -8 -9 -11 -13 -7 -16 15 8 28 51 28 29 0 44 -4 44 -13z m-10 -57
c0 -28 -2 -30 -40 -30 -38 0 -40 2 -40 30 0 28 2 30 40 30 38 0 40 -2 40 -30z"/>
<path d="M2243 1323 c-7 -3 -13 -12 -13 -21 1 -14 2 -14 12 3 11 19 11 19 19
0 6 -16 8 -17 8 -3 1 20 -9 27 -26 21z"/>
<path d="M2502 1338 c1 -38 2 -43 5 -20 3 18 11 36 19 39 11 4 12 9 3 19 -21
26 -29 14 -27 -38z"/>
<path d="M1211 1361 c-20 -16 -22 -22 -14 -47 8 -25 15 -29 51 -32 37 -3 43 0
52 23 14 37 13 41 -16 60 -15 9 -23 12 -20 6 5 -7 -1 -11 -14 -11 -12 0 -18 5
-15 10 9 14 3 12 -24 -9z m85 -33 c-3 -13 -6 -26 -6 -30 0 -5 -18 -8 -40 -8
-22 0 -40 3 -40 8 0 4 -3 17 -6 30 -6 21 -3 22 46 22 49 0 52 -1 46 -22z"/>
<path d="M1474 1343 c-4 -16 -11 -34 -17 -41 -7 -9 -6 -11 6 -6 9 3 17 18 19
32 4 34 30 35 39 2 4 -14 7 -18 8 -8 3 51 -44 69 -55 21z"/>
<path d="M1701 1310 c-1 -23 19 -40 49 -40 27 0 50 16 50 35 0 5 -5 2 -11 -7
-15 -27 -67 -24 -79 5 -5 13 -9 16 -9 7z"/>
<path d="M1750 1310 c0 -5 5 -10 11 -10 5 0 7 5 4 10 -3 6 -8 10 -11 10 -2 0
-4 -4 -4 -10z"/>
<path d="M2453 1313 c-18 -7 -16 -30 3 -37 33 -13 94 -6 101 10 6 16 -12 34
-32 34 -5 -1 -2 -5 8 -11 30 -17 19 -29 -27 -29 -51 0 -69 16 -34 29 13 6 16
10 8 10 -8 -1 -21 -3 -27 -6z"/>
<path d="M1490 1303 c0 -5 -10 -15 -22 -21 -13 -6 -18 -11 -12 -11 16 -1 50
27 41 35 -4 4 -7 3 -7 -3z"/>
<path d="M769 1094 c-13 -15 -34 -30 -45 -34 -22 -9 -38 -56 -23 -66 16 -10
48 7 55 29 4 12 17 30 30 40 24 19 31 41 15 51 -4 3 -19 -6 -32 -20z m11 -19
c-13 -14 -26 -23 -28 -20 -3 3 5 16 18 30 13 14 26 23 28 20 3 -3 -5 -16 -18
-30z m-35 -35 c7 -12 -12 -40 -26 -40 -5 0 -9 11 -9 25 0 25 23 35 35 15z"/>
<path d="M1234 1108 c-4 -6 -3 -8 4 -4 6 3 13 2 16 -3 3 -5 -3 -11 -14 -14
-36 -9 -37 -69 -1 -73 24 -3 25 -6 6 -14 -17 -7 -17 -9 -3 -9 21 -1 50 59 37
74 -5 5 -9 17 -9 26 0 20 -27 33 -36 17z m31 -54 c0 -10 -8 -20 -18 -22 -22
-4 -35 27 -16 39 20 12 34 5 34 -17z"/>
<path d="M1240 1061 c0 -6 4 -13 10 -16 6 -3 7 1 4 9 -7 18 -14 21 -14 7z"/>
<path d="M1454 1106 c-3 -7 -4 -35 -2 -62 l3 -49 48 -3 47 -3 0 46 c0 65 -13
85 -56 85 -20 0 -37 -6 -40 -14z m71 -6 c4 -6 -8 -10 -30 -10 -22 0 -34 4 -30
10 3 6 17 10 30 10 13 0 27 -4 30 -10z m15 -60 l0 -40 -40 0 -40 0 0 40 0 40
40 0 40 0 0 -40z"/>
<path d="M1493 1053 c9 -2 23 -2 30 0 6 3 -1 5 -18 5 -16 0 -22 -2 -12 -5z"/>
<path d="M1493 1023 c9 -2 23 -2 30 0 6 3 -1 5 -18 5 -16 0 -22 -2 -12 -5z"/>
<path d="M187 1096 c-6 -16 23 -64 55 -88 26 -20 54 -23 63 -8 9 14 -15 42
-31 36 -14 -5 -51 31 -41 41 9 8 -12 33 -28 33 -7 0 -15 -6 -18 -14z m33 -14
c0 -27 24 -54 48 -56 25 -1 31 -19 9 -24 -17 -4 -90 75 -82 88 10 16 25 11 25
-8z"/>
<path d="M446 1088 c-9 -34 -7 -50 5 -43 6 4 16 -1 23 -10 13 -18 56 -13 56 6
0 5 5 9 11 9 6 0 9 -10 7 -22 -3 -21 -9 -23 -55 -23 -28 0 -49 -3 -46 -7 5 -9
75 -11 97 -2 18 7 21 49 6 88 -8 23 -15 26 -54 26 -37 0 -45 -3 -50 -22z m97
-8 c3 -13 0 -20 -9 -20 -8 0 -14 -5 -14 -10 0 -21 -29 -21 -49 -1 -29 29 -17
51 29 51 29 0 39 -4 43 -20z"/>
<path d="M1010 1099 c0 -5 5 -7 10 -4 6 3 10 8 10 11 0 2 -4 4 -10 4 -5 0 -10
-5 -10 -11z"/>
<path d="M1946 1101 c-3 -5 -3 -29 0 -54 7 -46 28 -67 47 -48 13 13 -2 34 -19
27 -9 -3 -14 2 -14 14 0 17 7 20 41 20 38 0 40 -2 38 -27 -2 -16 1 -28 5 -28
9 0 16 72 8 93 -5 14 -98 17 -106 3z m99 -12 c4 -6 4 -13 0 -17 -4 -4 -10 -1
-13 7 -4 11 -6 11 -13 0 -8 -12 -11 -11 -19 1 -5 8 -10 10 -10 5 0 -6 -9 -11
-20 -12 -11 -1 -20 4 -20 13 0 17 85 20 95 3z m-55 -79 c0 -5 -5 -10 -11 -10
-5 0 -7 5 -4 10 3 6 8 10 11 10 2 0 4 -4 4 -10z"/>
<path d="M2205 1076 c-18 -37 -14 -56 11 -56 8 0 14 -4 14 -10 0 -5 5 -10 11
-10 6 0 9 8 7 18 -2 9 -10 16 -16 15 -8 -2 -12 10 -12 32 0 32 2 35 30 35 28
0 30 -2 30 -40 0 -22 4 -40 9 -40 20 0 22 22 6 56 -13 27 -22 34 -45 34 -23 0
-32 -7 -45 -34z"/>
<path d="M2440 1080 c0 -22 5 -30 18 -29 10 0 12 3 5 6 -7 2 -13 13 -13 23 0
16 9 20 58 23 l57 3 -62 2 -63 2 0 -30z"/>
<path d="M967 1049 c-15 -22 -27 -45 -27 -50 0 -16 26 -10 45 11 10 11 24 20
31 20 23 0 24 17 0 39 l-22 21 -27 -41z m52 -1 c-2 -2 -19 -14 -38 -27 -36
-25 -36 -23 -6 26 17 28 22 30 34 18 8 -8 13 -16 10 -17z"/>
<path d="M1692 1053 c3 -33 7 -38 31 -41 42 -5 87 19 87 45 0 16 -4 21 -15 17
-8 -4 -15 -1 -15 5 0 6 -19 11 -46 11 l-45 0 3 -37z m78 -3 c0 -28 -3 -30 -35
-30 -32 0 -35 2 -35 30 0 28 3 30 35 30 32 0 35 -2 35 -30z m30 0 c0 -5 -2
-10 -4 -10 -3 0 -8 5 -11 10 -3 6 -1 10 4 10 6 0 11 -4 11 -10z"/>
<path d="M2460 1081 c0 -6 16 -7 35 -4 l35 6 0 -43 c0 -41 -1 -42 -30 -38 -16
3 -30 1 -30 -4 0 -5 15 -8 33 -6 27 2 33 8 35 31 2 15 8 27 13 27 5 0 9 5 9
11 0 5 -4 7 -10 4 -5 -3 -10 1 -10 9 0 12 -10 16 -40 16 -22 0 -40 -4 -40 -9z"/>
<path d="M2496 1062 c-6 -10 -2 -39 6 -48 4 -3 6 8 6 25 -1 32 -3 37 -12 23z"/>
<path d="M222 822 c-17 -11 -22 -24 -22 -58 0 -38 3 -44 24 -50 49 -12 61 -3
64 51 2 44 0 51 -21 61 -18 8 -29 7 -45 -4z m58 -58 c0 -45 0 -45 -32 -42 -31
3 -33 6 -36 46 l-3 42 35 0 c36 0 36 0 36 -46z"/>
<path d="M255 770 c-3 -5 -13 -6 -23 -3 -14 5 -15 3 -4 -8 10 -11 15 -10 29 4
10 9 14 17 11 17 -4 0 -9 -4 -13 -10z"/>
<path d="M437 834 c-10 -10 -9 -114 1 -114 4 0 6 16 4 35 -4 30 -1 35 16 35
21 0 46 -23 35 -33 -12 -13 -25 -7 -19 8 3 8 1 15 -5 15 -22 0 -2 -34 24 -41
24 -6 26 -5 16 7 -6 8 -8 14 -4 14 4 0 2 7 -5 15 -11 13 -8 15 15 15 25 0 27
-3 23 -35 -2 -19 0 -35 5 -35 4 0 7 26 5 58 l-3 57 -50 3 c-28 2 -54 0 -58 -4z
m103 -19 c0 -11 -12 -15 -50 -15 -38 0 -50 4 -50 15 0 11 12 15 50 15 38 0 50
-4 50 -15z"/>
<path d="M705 815 c-14 -13 -25 -30 -25 -37 0 -18 28 -58 41 -58 5 0 0 9 -11
20 -11 11 -20 27 -20 35 0 8 9 24 20 35 11 11 27 20 35 20 8 0 24 -9 35 -20
11 -11 20 -16 20 -11 0 13 -40 41 -58 41 -7 0 -24 -11 -37 -25z"/>
<path d="M997 828 c-10 -5 -17 -21 -17 -38 0 -21 -4 -28 -14 -24 -24 9 -27
-14 -4 -30 12 -9 27 -16 33 -16 5 1 -2 8 -17 16 -32 17 -36 26 -10 22 13 -2
18 5 21 32 4 33 4 33 11 10 8 -24 8 -24 9 -2 1 19 4 21 20 12 14 -7 21 -23 24
-53 l4 -42 1 46 c2 39 -2 49 -21 62 -16 10 -28 12 -40 5z"/>
<path d="M1750 814 c-9 -23 -12 -25 -28 -13 -15 13 -16 12 -3 -4 12 -15 12
-20 2 -27 -11 -6 -11 -8 0 -12 11 -4 11 -8 2 -19 -9 -11 -7 -14 12 -14 17 0
21 3 13 12 -5 7 -8 22 -6 35 2 17 10 23 28 23 18 0 26 -6 28 -23 2 -13 -1 -29
-8 -37 -8 -10 -6 -13 14 -11 19 1 22 4 13 14 -8 10 -7 16 2 22 11 6 11 8 0 12
-12 4 -12 8 -1 21 11 13 10 15 -6 10 -14 -3 -21 2 -25 16 -7 29 -25 26 -37 -5z
m30 6 c0 -5 -4 -10 -10 -10 -5 0 -10 5 -10 10 0 6 5 10 10 10 6 0 10 -4 10
-10z"/>
<path d="M1245 820 c-3 -5 3 -10 15 -10 12 0 18 5 15 10 -3 6 -10 10 -15 10
-5 0 -12 -4 -15 -10z"/>
<path d="M1454 816 c-3 -8 -4 -31 -2 -52 l3 -39 50 -1 50 -2 -45 7 c-40 5 -45
9 -48 33 -3 26 -1 27 50 31 l53 3 -52 2 c-31 1 -53 7 -53 13 0 7 18 10 50 7
28 -1 50 0 50 5 0 14 -100 8 -106 -7z"/>
<path d="M1986 793 l-26 -38 30 -3 c16 -2 44 -2 60 0 l30 3 -26 38 c-15 20
-30 37 -34 37 -4 0 -19 -17 -34 -37z m57 -3 l18 -30 -41 0 -41 0 18 30 c9 17
20 30 23 30 3 0 14 -13 23 -30z"/>
<path d="M2226 814 c-19 -18 -21 -75 -4 -92 7 -7 24 -12 38 -12 36 0 50 17 50
62 0 53 -49 78 -84 42z m72 -46 c-3 -42 -4 -43 -38 -43 -31 0 -35 3 -38 28 -5
45 4 57 43 57 l36 0 -3 -42z"/>
<path d="M2250 786 c0 -8 -3 -21 -6 -30 -5 -12 0 -16 21 -16 14 0 24 4 20 10
-3 5 -11 8 -18 6 -7 -1 -9 -1 -4 1 11 7 9 43 -3 43 -5 0 -10 -6 -10 -14z"/>
<path d="M2502 800 c0 -19 2 -27 5 -17 2 9 2 25 0 35 -3 9 -5 1 -5 -18z"/>
<path d="M2446 804 c-11 -28 -6 -50 12 -67 10 -10 23 -17 28 -17 4 0 -2 7 -14
16 -24 17 -29 53 -10 72 8 8 8 12 1 12 -6 0 -14 -7 -17 -16z"/>
<path d="M2547 787 c4 -28 1 -37 -18 -51 -13 -9 -18 -16 -12 -16 32 0 60 78
34 95 -6 3 -8 -8 -4 -28z"/>
<path d="M732 798 c-21 -21 -15 -48 13 -48 27 0 32 16 12 43 -10 14 -15 15
-25 5z m28 -28 c0 -5 -7 -7 -15 -4 -8 4 -12 10 -9 15 6 11 24 2 24 -11z"/>
<path d="M1205 780 c-8 -13 9 -20 24 -11 10 6 9 10 -3 14 -8 3 -18 2 -21 -3z"/>
<path d="M1286 780 c-19 -6 -19 -7 2 -12 12 -4 24 -2 27 2 8 13 -8 18 -29 10z"/>
<path d="M1493 773 c-31 -6 -29 -23 2 -21 14 1 25 8 25 15 0 7 -1 12 -2 12 -2
-1 -13 -4 -25 -6z"/>
<path d="M1531 764 c0 -11 3 -14 6 -6 3 7 2 16 -1 19 -3 4 -6 -2 -5 -13z"/>
<path d="M1554 765 c-9 -22 1 -29 15 -11 8 10 9 16 1 21 -5 3 -13 -1 -16 -10z"/>
<path d="M1758 773 c6 -2 18 -2 25 0 6 3 1 5 -13 5 -14 0 -19 -2 -12 -5z"/>
<path d="M790 751 c0 -6 -10 -16 -22 -21 -16 -6 -18 -9 -7 -9 19 -1 45 26 35
36 -3 3 -6 1 -6 -6z"/>
<path d="M1248 728 c9 -9 15 -9 24 0 9 9 7 12 -12 12 -19 0 -21 -3 -12 -12z"/>
<path d="M227 522 c-25 -39 -26 -42 -8 -42 13 0 21 -8 23 -22 3 -21 5 -20 25
12 18 27 19 36 8 38 -7 2 -15 15 -17 30 -3 25 -4 25 -31 -16z m37 -24 c8 -5 7
-11 -2 -20 -9 -9 -12 -9 -12 0 0 7 -7 12 -15 12 -13 0 -14 4 -4 22 10 18 13
20 17 8 3 -8 10 -18 16 -22z"/>
<path d="M439 536 c14 -15 19 -26 12 -31 -21 -12 -11 -25 21 -25 30 0 31 -1
12 -14 -10 -8 -15 -18 -11 -23 5 -4 13 0 19 10 9 18 11 18 31 1 12 -10 -5 10
-38 44 -33 34 -61 62 -64 62 -2 0 6 -11 18 -24z m36 -36 c3 -5 1 -10 -4 -10
-6 0 -11 5 -11 10 0 6 2 10 4 10 3 0 8 -4 11 -10z"/>
<path d="M481 546 c-7 -8 -8 -17 -3 -20 6 -3 12 3 15 14 6 24 4 25 -12 6z"/>
<path d="M700 540 c-25 -25 -26 -62 -2 -83 39 -35 102 -9 102 41 0 28 -34 62
-60 62 -11 0 -29 -9 -40 -20z m20 -4 c0 -3 -4 -8 -10 -11 -5 -3 -10 -1 -10 4
0 6 5 11 10 11 6 0 10 -2 10 -4z m30 -6 c0 -5 -4 -10 -10 -10 -5 0 -10 5 -10
10 0 6 5 10 10 10 6 0 10 -4 10 -10z m25 0 c3 -5 1 -10 -4 -10 -6 0 -11 5 -11
10 0 6 2 10 4 10 3 0 8 -4 11 -10z m-65 -35 c0 -8 -4 -15 -10 -15 -5 0 -10 7
-10 15 0 8 5 15 10 15 6 0 10 -7 10 -15z m50 0 c0 -8 -9 -15 -20 -15 -11 0
-20 7 -20 15 0 8 9 15 20 15 11 0 20 -7 20 -15z m30 0 c0 -8 -4 -15 -10 -15
-5 0 -10 7 -10 15 0 8 5 15 10 15 6 0 10 -7 10 -15z m-70 -35 c0 -5 -2 -10 -4
-10 -3 0 -8 5 -11 10 -3 6 -1 10 4 10 6 0 11 -4 11 -10z m30 0 c0 -5 -4 -10
-10 -10 -5 0 -10 5 -10 10 0 6 5 10 10 10 6 0 10 -4 10 -10z m30 6 c0 -3 -4
-8 -10 -11 -5 -3 -10 -1 -10 4 0 6 5 11 10 11 6 0 10 -2 10 -4z"/>
<path d="M960 525 c-19 -19 -31 -35 -26 -35 4 0 18 12 31 27 23 27 23 28 44 9
12 -11 21 -31 21 -49 0 -28 -2 -29 -40 -25 -22 2 -40 0 -40 -5 0 -4 19 -7 42
-5 37 3 43 6 50 33 6 25 3 34 -20 58 l-28 27 -34 -35z"/>
<path d="M1986 545 c-3 -8 -11 -14 -18 -13 -8 2 -12 -11 -13 -37 0 -29 4 -39
14 -37 8 2 18 -3 22 -10 7 -10 9 -10 9 0 0 7 -8 16 -17 20 -10 4 -19 19 -20
35 -1 15 2 25 6 22 5 -2 14 2 21 10 10 13 14 13 27 0 8 -9 18 -13 23 -10 5 3
8 -7 7 -22 -1 -16 -10 -31 -19 -35 -10 -4 -18 -13 -18 -20 0 -10 2 -10 9 0 4
7 14 12 22 10 10 -2 14 8 14 37 -1 26 -5 39 -13 37 -7 -1 -15 5 -18 13 -4 8
-12 15 -19 15 -7 0 -15 -7 -19 -15z"/>
<path d="M2225 547 c-17 -10 -19 -19 -14 -52 l6 -40 2 38 c1 34 3 37 31 37 28
0 30 -2 30 -39 0 -37 -2 -40 -32 -44 l-33 -5 35 2 c32 1 35 4 38 36 2 19 8 41
14 47 8 10 5 13 -10 13 -12 0 -24 5 -27 10 -7 12 -14 12 -40 -3z"/>
<path d="M2447 553 c-10 -9 -9 -101 1 -107 4 -2 6 13 4 35 l-4 39 51 0 c28 0
51 -4 51 -10 0 -5 -8 -10 -18 -10 -10 0 -21 -3 -25 -6 -11 -11 5 -34 25 -34
10 0 16 -4 13 -10 -3 -5 -1 -10 4 -10 17 0 13 68 -5 95 -13 19 -25 25 -53 25
-21 0 -41 -3 -44 -7z m83 -13 c0 -5 -18 -10 -40 -10 -22 0 -40 5 -40 10 0 6
18 10 40 10 22 0 40 -4 40 -10z m20 -62 c0 -11 -28 -10 -35 1 -3 6 4 9 15 8
11 -1 20 -5 20 -9z"/>
<path d="M1450 531 c0 -15 13 -28 45 -43 48 -23 68 -19 43 9 -8 10 -18 27 -22
38 -8 20 -8 20 -23 -2 -16 -24 -33 -30 -33 -12 0 5 5 7 11 3 7 -4 10 -1 7 6
-7 23 -28 23 -28 1z m84 -43 c17 -12 0 -9 -28 3 -19 9 -22 14 -13 24 10 10 14
10 21 -4 5 -9 14 -19 20 -23z"/>
<path d="M1214 529 c-3 -5 0 -9 5 -9 6 0 11 -4 11 -10 0 -5 -9 -10 -20 -10
-24 0 -27 -15 -4 -24 18 -7 94 34 94 50 0 13 -78 15 -86 3z m76 -5 c0 -1 -15
-12 -34 -23 -37 -23 -60 -29 -31 -8 10 8 15 18 12 24 -4 5 7 10 23 10 17 0 30
-1 30 -3z"/>
<path d="M1712 515 c-13 -15 -17 -27 -11 -31 13 -8 24 3 24 24 0 10 11 19 30
23 28 6 28 7 4 8 -16 1 -34 -8 -47 -24z"/>
<path d="M1779 504 c-9 -12 -10 -15 -1 -10 6 4 12 3 12 -2 0 -13 -21 -29 -45
-35 -19 -5 -19 -5 1 -6 27 -1 72 45 57 60 -7 7 -14 4 -24 -7z"/>
<path d="M1994 509 c-4 -8 -3 -9 4 -5 7 4 12 3 12 -3 0 -5 -6 -12 -12 -14 -8
-3 -6 -6 5 -6 9 -1 17 5 17 13 0 20 -17 29 -26 15z"/>
<path d="M510 499 c0 -5 5 -7 10 -4 6 3 10 8 10 11 0 2 -4 4 -10 4 -5 0 -10
-5 -10 -11z"/>
<path d="M2261 484 c0 -11 3 -14 6 -6 3 7 2 16 -1 19 -3 4 -6 -2 -5 -13z"/>
<path d="M977 483 c-10 -10 -8 -23 4 -23 5 0 7 5 4 10 -3 6 -2 10 4 10 5 0 12
-6 14 -12 3 -8 6 -6 6 5 1 17 -19 23 -32 10z"/>
<path d="M1218 453 c17 -2 47 -2 65 0 17 2 3 4 -33 4 -36 0 -50 -2 -32 -4z"/>
<path d="M1468 443 c17 -2 47 -2 65 0 17 2 3 4 -33 4 -36 0 -50 -2 -32 -4z"/>
<path d="M202 268 c-18 -18 -15 -53 6 -69 15 -13 16 -12 4 3 -8 9 -12 27 -10
40 2 18 9 23 33 23 24 0 31 -5 33 -23 2 -13 -2 -30 -8 -38 -10 -11 -10 -14 0
-14 8 0 23 -8 34 -17 l21 -18 -20 23 c-11 14 -18 35 -17 49 2 13 -2 31 -8 39
-15 17 -52 18 -68 2z"/>
<path d="M453 264 c16 -19 16 -22 2 -27 -8 -4 -15 -13 -15 -21 0 -20 54 -48
74 -40 9 4 24 0 34 -7 9 -7 4 1 -12 19 -16 17 -34 29 -39 25 -6 -3 -7 -2 -4 4
4 5 -8 23 -26 39 -17 16 -24 19 -14 8z m50 -64 c15 0 18 -3 11 -10 -8 -8 -19
-7 -37 1 -30 14 -32 19 -14 38 10 10 13 8 15 -8 2 -14 11 -21 25 -21z"/>
<path d="M706 258 c-21 -30 -20 -54 4 -78 39 -39 100 -14 100 42 0 53 -74 79
-104 36z m82 0 c15 -15 15 -61 0 -76 -28 -28 -88 -2 -88 38 0 40 60 66 88 38z"/>
<path d="M748 238 c-19 -16 -31 -48 -18 -48 6 0 19 9 30 20 32 32 23 55 -12
28z m12 -18 c0 -5 -4 -10 -10 -10 -5 0 -10 5 -10 10 0 6 5 10 10 10 6 0 10 -4
10 -10z"/>
<path d="M956 264 c-21 -21 -20 -40 5 -65 13 -13 27 -18 40 -14 13 4 28 0 40
-11 10 -9 19 -12 19 -7 0 6 -6 16 -14 22 -8 7 -12 20 -9 30 13 49 -46 81 -81
45z m62 -6 c18 -18 14 -46 -7 -58 -25 -13 -48 -4 -56 21 -12 38 35 65 63 37z"/>
<path d="M978 233 c6 -2 18 -2 25 0 6 3 1 5 -13 5 -14 0 -19 -2 -12 -5z"/>
<path d="M1212 268 c-7 -7 -12 -16 -12 -22 0 -5 6 -2 13 8 8 11 23 17 38 14
34 -4 39 -46 7 -69 l-23 -18 24 6 c16 4 26 1 33 -11 5 -9 14 -16 20 -16 6 0 3
9 -8 21 -11 12 -17 32 -16 46 2 13 -2 31 -8 39 -15 17 -52 18 -68 2z"/>
<path d="M1452 236 c-3 -55 18 -77 76 -73 l41 2 -26 27 c-14 15 -31 25 -36 21
-6 -3 -7 -2 -4 4 4 5 -6 22 -21 36 l-27 26 -3 -43z m31 -19 c-1 -21 2 -25 22
-24 13 1 24 -2 25 -8 1 -15 -39 -18 -56 -5 -18 15 -19 74 -1 67 6 -2 11 -16
10 -30z"/>
<path d="M1510 271 c29 -5 37 -12 47 -41 8 -22 12 -28 12 -15 1 36 -27 65 -62
64 l-32 -2 35 -6z"/>
<path d="M1966 258 c-21 -30 -20 -54 4 -78 39 -39 100 -14 100 42 0 53 -74 79
-104 36z m82 0 c7 -7 12 -24 12 -38 0 -14 -5 -31 -12 -38 -28 -28 -88 -2 -88
38 0 40 60 66 88 38z"/>
<path d="M2010 220 c0 -11 4 -20 9 -20 5 0 7 9 4 20 -3 11 -7 20 -9 20 -2 0
-4 -9 -4 -20z"/>
<path d="M2470 254 c-6 -14 -10 -41 -10 -60 0 -35 0 -35 43 -32 41 3 42 4 45
41 2 21 -1 37 -7 37 -6 0 -11 9 -11 20 0 32 -48 27 -60 -6z m50 1 c0 -8 -9
-15 -20 -15 -11 0 -20 7 -20 15 0 8 9 15 20 15 11 0 20 -7 20 -15z m20 -55 c0
-28 -3 -30 -35 -30 -32 0 -35 2 -35 30 0 28 3 30 35 30 32 0 35 -2 35 -30z"/>
<path d="M1722 246 c-17 -20 -18 -27 -8 -35 10 -8 17 -7 27 6 11 14 11 15 1 9
-10 -6 -13 -3 -10 10 2 14 12 19 38 19 29 0 36 -4 38 -23 4 -30 -13 -50 -46
-55 -26 -4 -26 -4 4 -6 36 -1 54 14 54 49 0 53 -60 69 -98 26z"/>
<path d="M2220 242 l-23 -19 23 -21 c13 -12 33 -22 45 -22 12 0 32 10 45 22
l23 21 -23 19 c-12 10 -32 18 -45 18 -13 0 -33 -8 -45 -18z m80 -7 c16 -20 -3
-45 -35 -45 -32 0 -51 25 -35 45 7 8 23 15 35 15 12 0 28 -7 35 -15z"/>
<path d="M2255 230 c-4 -6 -3 -16 3 -22 6 -6 12 -6 17 2 4 6 3 16 -3 22 -6 6
-12 6 -17 -2z"/>
<path d="M226 242 c-2 -4 -1 -14 3 -21 6 -10 10 -9 14 3 6 16 -8 32 -17 18z"/>
<path d="M520 237 c14 -8 24 -19 23 -25 -2 -7 2 -12 7 -12 6 0 10 4 10 8 0 14
-35 42 -51 42 -8 0 -3 -6 11 -13z"/>
<path d="M1520 239 c0 -5 5 -7 10 -4 6 3 10 8 10 11 0 2 -4 4 -10 4 -5 0 -10
-5 -10 -11z"/>
<path d="M1200 218 c0 -9 5 -20 11 -23 17 -11 18 -2 3 19 -12 17 -14 17 -14 4z"/>
<path d="M1770 210 c0 -5 5 -10 11 -10 5 0 7 5 4 10 -3 6 -8 10 -11 10 -2 0
-4 -4 -4 -10z"/>
</g>
</svg>
